<?xml version="1.0" encoding="utf-8"?>
<!-- Generator: Adobe Illustrator 27.5.0, SVG Export Plug-In . SVG Version: 6.00 Build 0)  -->
<svg version="1.1" xmlns="http://www.w3.org/2000/svg" xmlns:xlink="http://www.w3.org/1999/xlink" x="0px" y="0px"
	 viewBox="0 0 500 500" style="enable-background:new 0 0 500 500;" xml:space="preserve">
<g id="BACKGROUND">
	<rect style="fill:#FFFFFF;" width="500" height="500"/>
</g>
<g id="OBJECTS">
	<g>
		<path style="fill:#BAC3D8;" d="M297.313,62.274c-157.283-29.1-273.675,74.338-283.74,192.937
			c-19.351,228.027,183.8-29.122,255.304,133.954C349.471,572.975,710.657,138.749,297.313,62.274z"/>
		<path style="fill:#BAC3D8;" d="M477.715,378.561c4.645,6.595-0.554,18.254-11.611,26.04c-11.057,7.786-23.785,8.751-28.43,2.156
			s0.554-18.254,11.611-26.04C460.342,372.931,473.07,371.966,477.715,378.561z"/>
		
			<ellipse transform="matrix(0.8176 -0.5758 0.5758 0.8176 -31.7986 56.4777)" style="fill:#BAC3D8;" cx="73.247" cy="78.431" rx="41.049" ry="24.486"/>
	</g>
	<g>
		<rect y="401.641" style="fill:#261655;" width="500" height="98.358"/>
		<rect y="401.641" style="fill:#A5A5A5;" width="500" height="98.358"/>
		<polygon style="opacity:0.3;fill:#261655;" points="421.909,500 79.927,500 127.924,401.641 372.507,401.641 		"/>
		<ellipse style="opacity:0.3;fill:#261655;" cx="78.482" cy="437.918" rx="46.313" ry="5.149"/>
		<path style="opacity:0.3;fill:#261655;" d="M70.527,401.641c-10.447,9.85-15.494,19.96-11.92,26.151
			c5.304,9.186,27.56,6.265,49.712-6.524c10.249-5.918,18.674-12.91,24.25-19.627H70.527z"/>
		<path style="opacity:0.3;fill:#261655;" d="M408.952,401.641c10.447,9.85,15.494,19.96,11.92,26.151
			c-5.303,9.186-27.56,6.265-49.712-6.524c-10.249-5.918-18.674-12.91-24.25-19.627H408.952z"/>
		<path style="opacity:0.3;fill:#261655;" d="M481.442,440.134c0-7.244-79.368-13.116-177.274-13.116
			c-97.906,0-177.274,5.872-177.274,13.116c0,3.047,14.047,5.851,37.607,8.078c-1.456,0.608-2.243,1.243-2.243,1.897
			c0,4.374,34.528,7.919,77.12,7.919c31.754,0,59.016-1.971,70.839-4.787C405.321,453.005,481.442,447.228,481.442,440.134z"/>
	</g>
	<g>
		<path style="fill:#222C2B;" d="M359.416,389.616c0,31.313-25.382,56.693-56.693,56.693H186.621
			c-31.311,0-56.693-25.381-56.693-56.693l10-229.102c0-31.311,25.382-56.693,56.693-56.693l97.102,1
			c31.311,0,56.693,25.382,56.693,56.693L359.416,389.616z"/>
		<path style="fill:#383D43;" d="M154.789,239.646l-5.528,126.667c0,26.219,21.253,47.471,47.471,47.471h97.213
			c26.218,0,47.471-21.252,47.471-47.471l-4.998-126.667H154.789z"/>
		<polygon style="fill:#383D43;" points="336.121,232.146 333.932,176.649 157.539,176.649 155.117,232.146 		"/>
		<path style="fill:#383D43;" d="M333.762,172.149c-1.633-24.737-22.201-44.3-47.353-44.3l-81.305-0.837
			c-25.436,0-46.195,20.004-47.412,45.137H333.762z"/>
	</g>
	<g>
		<g>
			<g>
				<path style="fill:#DD901F;" d="M278.716,227.426c0,0,29.611-2.167,35.147,10.015c5.533,12.183,38.309,107.873,27.975,116.527
					c-22.632,18.952-64.472-100.515-64.472-100.515L278.716,227.426z"/>
				<g>
					<g>
						<g>
							<g>
								<path style="fill:#DD901F;" d="M218.604,227.426c0,0-29.613-2.167-35.146,10.015
									c-5.532,12.183-64.169,109.834-22.162,109.288c13.479-0.175,58.659-93.275,58.659-93.275L218.604,227.426z"/>
								<g>
									<g>
										<g>
											<rect x="190.1" y="236.042" style="fill:#DD901F;" width="114.903" height="123.558"/>
										</g>
									</g>
								</g>
								<path style="fill:#DD901F;" d="M318.882,349.768c13.051,17.685,44.351,40.099,63.398,46.478
									c0.868-0.697,15.525-10.778,18.935-14.036c-9.191-19.546-47.603-52.049-56.637-57.361c-11.533-6.78-24.467,0.1-27.733,6.422
									C314.895,335.044,316.12,346.025,318.882,349.768z"/>
								<path style="fill:#C1730C;" d="M339.657,350.22c-2.762-3.743-3.987-14.724-2.035-18.497c1.24-2.401,3.876-4.88,7.299-6.663
									c-0.111-0.068-0.238-0.15-0.341-0.211c-11.533-6.78-24.467,0.1-27.733,6.422c-1.952,3.773-0.727,14.754,2.035,18.497
									c13.051,17.685,44.351,40.099,63.398,46.478c0.403-0.323,3.772-2.666,7.609-5.409
									C371.804,381.216,350.001,364.237,339.657,350.22z"/>
								<path style="fill:#F4C6BA;" d="M382.4,396.135l-0.12,0.11C382.28,396.246,382.17,395.795,382.4,396.135z"/>
								<path style="fill:#F4C6BA;" d="M463.691,416.385c-2.79,0-4.99-1.58-6.561-3.28c1.051,2.04,1.301,3.96-2.1,3.28
									c-6.67-1.33-10-6-10-6s3.33,8-2.67,6c-5.71-1.9-10.22-7.43-10.65-7.96c0.341,0.64,4.381,8.5-2.02,5.3
									c-6.66-3.34-10-10-10-10l-0.01,0.01c-0.29,0.28-4.91,4.761-6.82,5.82c-3.3,1.83-9.78,3.76-15.66,3.08
									c-4.58-0.51-8.79-2.61-10.84-7.58c-2.68-6.52-3.63-8.45-3.96-8.92l18.815-13.926c0,0,3.815-0.485,6.475-4.485
									c2.67-4,4.67-14,10-11.34c5.34,2.67,4,11.34,1.34,14.67c-2.59,3.23-4.54,7.24-4.66,7.49c0.29-0.32,5.17-5.641,10.99-4.99
									c3.37,0.37,4.69,1.75,5.2,2.89c0.23-0.92,1.29-1.89,4.8-1.89c6.67,0,7,5.5,7,5.5s1.17-4.5,4.5-2.5s4.5,6,4.5,6s1.33-5,4-3
									s6.33,12.5,7.67,14.5C464.36,407.055,469.691,416.385,463.691,416.385z"/>
								<path style="opacity:0.5;fill:#F4976E;" d="M419.691,403.725l-0.01,0.01c-0.29,0.28-4.91,4.761-6.82,5.82
									c-3.3,1.83-9.78,3.76-15.66,3.08l-1.84-0.58c0,0,11-14,17-15S419.691,403.725,419.691,403.725z"/>
								<path style="fill:#DD901F;" d="M165.684,342.375c-13.989,18.081-42.327,39.981-63.423,46.952
									c-0.995-0.671-17.337-16.729-21.268-19.879c9.605-19.823,45.136-45.589,55.06-51.18c12.673-7.136,27.386-0.663,31.262,5.555
									C169.632,327.534,168.644,338.548,165.684,342.375z"/>
								<path style="fill:#C1730C;" d="M167.316,323.823c-1.677-2.69-5.384-5.425-10.074-7.088
									c0.493,4.827-0.611,11.543-2.792,14.363c-13.989,18.081-42.327,39.981-63.422,46.952c-0.504-0.34-4.951-4.633-9.725-9.194
									c-0.1,0.197-0.213,0.396-0.308,0.592c3.931,3.149,20.273,19.208,21.268,19.879c21.096-6.971,49.433-28.871,63.423-46.952
									C168.644,338.548,169.632,327.534,167.316,323.823z"/>
								<g>
									<g>
										<path style="fill:#494E52;" d="M35.553,421.886c0,18.639,16.685,17.169,39.051,17.169s41.945,1.47,41.945-17.169
											c0-18.639-18.132-33.748-40.498-33.748S35.553,403.248,35.553,421.886z"/>
										<path style="fill:#383D43;" d="M116.294,418.137c0.163,1.232,0.255,2.482,0.255,3.749
											c0,18.639-19.579,17.169-41.945,17.169s-39.051,1.47-39.051-17.169c0-1.268,0.092-2.518,0.255-3.749H116.294z"/>
										<path style="fill:#222C2B;" d="M37.144,430.137c4.649,9.886,19.141,8.918,37.46,8.918c18.319,0,34.751,0.968,40.101-8.918
											H37.144z"/>
									</g>
									<path style="fill:#F4C6BA;" d="M96.72,372.497c-0.338-0.335-0.662-0.677-0.976-1.024c-2.544-1.536-5.714-3.453-9.644-5.418
										c-12-6-20,0-28.05,2.58c-5.15,1.66-9.19,1.71-12,3c-3.971,1.83-8.45,10.92-8.45,15.42s-7.5,22-1.5,22
										c5.79,0,9.68-15.31,9.94-16.36c-0.229,1.261-3.859,21.88-1.44,22.36c9.54,1.91,12.94-18.9,13.399-22.03
										c-0.3,2.78-1.83,19.53,5.101,19.03c6.899-0.49,6.95-18.89,6.95-19.41c0.06,0.54,2.18,18.34,10.5,13.49
										c0.56-0.33,1.3-3.71,1.96-7.47c0.859-4.98,1.59-10.61,1.59-10.61s3.435,0.937,6.745,2.005
										C92.097,384.045,93.968,378.325,96.72,372.497z"/>
									<path style="fill:#F4C6BA;" d="M108.528,388.209c-4.077-2.54-4.674-6.339-4.674-6.339l-6.806-9.568
										c-3.672-5.162-10.462-7.206-16.276-4.689c-0.064,0.028-0.129,0.056-0.193,0.085c-4.907,2.196-6.882,6.466-7.256,11.06
										c-0.175,2.04-0.031,4.139,0.307,6.15c-0.038-0.229,6.63,1.289,7.239,1.569c2.177,1.001,4.425,1.765,6.685,2.617
										c3.699,1.395,7.209,3.239,10.531,5.377c3.003,1.932,5.638,4.444,8.902,5.956c4.094,1.896,10.915,2.313,13.172-2.557
										C122.66,392.462,112.605,390.759,108.528,388.209z"/>
								</g>
								<path style="fill:#C1730C;" d="M286.675,229.893c0,15.382-18.277,27.849-40.825,27.849
									c-22.55,0-40.824-12.466-40.824-27.849c0-15.374,18.274-27.849,40.824-27.849
									C268.397,202.044,286.675,214.519,286.675,229.893z"/>
								<path style="fill:#DD901F;" d="M286.675,218.18c0,15.382-15.995,40.41-38.542,40.41c-22.55,0-43.107-25.028-43.107-40.41
									c0-15.375,18.274-27.849,40.824-27.849C268.397,190.332,286.675,202.805,286.675,218.18z"/>
								<path style="fill:#C1730C;" d="M268.661,219.74c0,7.926-8.938,20.821-21.536,20.821c-12.6,0-24.085-12.895-24.085-20.821
									c0-7.922,10.21-14.349,22.81-14.349C258.448,205.391,268.661,211.818,268.661,219.74z"/>
							</g>
						</g>
						<g>
							<g>
								<path style="fill:#F4C6BA;" d="M257.323,218.821c0.341,4.926,2.576,12.038,2.576,12.038
									c-0.723,0.801-5.678,9.12-13.723,8.947c-7.695-0.165-15.281-6.644-13.589-7.904c0.599-0.445,1.883-5.466,2.133-6.489
									c0.506-2.141,0.92-4.572,1.096-7.249c0.401-6.138-0.566-11.316-1.65-15.078c-0.323-1.093-0.658-2.058-0.966-2.9
									l26.835,0.119c-0.442,1.189-0.916,2.616-1.347,4.266c-0.764,2.9-1.405,6.497-1.465,10.605
									C257.209,216.352,257.239,217.569,257.323,218.821z"/>
								<path style="fill:#EF9C9C;" d="M258.684,204.574c-0.766,2.906-1.586,8.796-1.248,15.423
									c-6.236,3.912-14.556,3.376-22.72,5.418c0.518-2.149,0.928-4.579,1.104-7.257c0.406-6.125-0.565-11.313-1.658-15.072
									c0.741-1.189,1.393-2.18,1.855-2.884c0.493-0.733,0.782-1.153,0.782-1.153l4.659,1.176L258.684,204.574z"/>
								<g>
									<g>
										<path style="fill:#F4C6BA;" d="M248.876,217.447c-49.215-0.272-62.004-82.125-44.544-96.456
											c15.433-12.665,71.648-12.416,86.964,0.384C308.628,135.858,285.925,217.653,248.876,217.447z"/>
										<path style="fill:#000516;" d="M231.584,162.097c0,3.478-1.803,6.297-4.027,6.297c-2.224,0-4.027-2.819-4.027-6.297
											c0-3.478,1.803-6.297,4.027-6.297C229.78,155.8,231.584,158.619,231.584,162.097z"/>
										<path style="fill:#000516;" d="M277.366,145.128c0,0-9.184-7.043-21.796,9.706L277.366,145.128z"/>
										<path style="fill:#000516;" d="M260.822,162.097c0,3.478,1.803,6.297,4.027,6.297s4.027-2.819,4.027-6.297
											c0-3.478-1.803-6.297-4.027-6.297S260.822,158.619,260.822,162.097z"/>
										<g>
											<g>
												<path style="fill:#F32C6D;" d="M267.657,200.629c-0.12,0.123-0.225,0.26-0.343,0.391
													c-2.655,3.126-12.478,7.385-22.863,6.816c-4.05-0.223-7.649-1.115-10.297-2.574c-4.135-2.289-5.941-5.947-3.462-10.529
													c1.464-2.705,3.235-3.994,5.18-4.542c2.055-0.585,4.304-0.341,6.575-0.076c0.519,0.061,1.036,0.12,1.553,0.18
													c1.022,0.104,2.036,0.173,3.035,0.145c1.314-0.041,2.483-0.206,3.541-0.454c0.389-0.086,0.765-0.187,1.133-0.286
													c2.728-0.805,4.691-2.038,6.581-2.612c0.207-0.069,0.419-0.12,0.62-0.169l0.404-0.099
													c1.471-0.387,4.168-1.24,6.578-0.645c1.605,0.391,3.084,1.418,3.976,3.66
													C272.285,195.886,270.163,197.726,267.657,200.629z"/>
												<path style="fill:#FF739F;" d="M267.657,200.629c-0.12,0.123-0.225,0.26-0.343,0.391
													c-2.655,3.126-12.478,7.385-22.863,6.816c-4.05-0.223-7.649-1.115-10.297-2.574c0.119-0.122,0.225-0.259,0.342-0.391
													c2.656-3.126,12.48-7.385,22.864-6.815C261.41,198.278,265.01,199.17,267.657,200.629z"/>
											</g>
											<path style="fill:#FFF9FE;" d="M242.447,190.114c-0.201,3.756-1.994,6.411-4.78,4.994
												c-2.35-1.196-1.939-3.066-1.795-4.918C237.927,189.605,240.176,189.849,242.447,190.114z"/>
											<path style="fill:#FFF9FE;" d="M250.576,189.985c0.002,0.008-0.004,0.019-0.002,0.028
												c-0.111,3.902-1.925,6.739-4.785,5.284c-2.393-1.214-1.927-3.125-1.789-5.003c1.022,0.104,2.036,0.173,3.035,0.145
												C248.349,190.398,249.519,190.233,250.576,189.985z"/>
											<path style="fill:#FFF9FE;" d="M258.29,187.087c0.048,0.539,0.063,1.094,0.05,1.655
												c-0.119,3.904-1.933,6.741-4.784,5.284c-2.105-1.069-2.004-2.678-1.847-4.328
												C254.437,188.895,256.4,187.661,258.29,187.087z"/>
											<path style="fill:#FFF9FE;" d="M265.893,186.175c0.006,0.138,0.002,0.279-0.001,0.419
												c-0.119,3.904-1.933,6.741-4.796,5.278c-2.404-1.23-1.915-3.156-1.781-5.052
												C260.785,186.433,263.482,185.579,265.893,186.175z"/>
										</g>
										<path style="fill:#F4C6BA;" d="M202.428,151.801c-1.262-2.812-9.796-3.646-14.888-0.065
											c-5.091,3.583,0.255,19.396,5.657,21.56c4.501,1.805,9.129,2.074,10.828,0.05
											C205.729,171.323,204.777,157.002,202.428,151.801z"/>
										<path style="fill:#F4C6BA;" d="M293.156,152.229c1.289-2.8,9.829-3.559,14.887,0.065
											c5.058,3.628-0.427,19.395-5.845,21.514c-4.517,1.762-9.147,1.99-10.835-0.051
											C289.684,171.721,290.762,157.414,293.156,152.229z"/>
									</g>
									<path style="fill:#6C341E;" d="M196.149,162.418c0.856,3.267,0.43,6.208-0.95,6.571c-1.379,0.361-1.063-2.652-1.918-5.92
										c-0.855-3.267-2.559-5.553-1.179-5.915C193.481,156.794,195.292,159.15,196.149,162.418z"/>
									<path style="fill:#6C341E;" d="M301.807,159.303c-0.884,3.262-0.485,6.206,0.892,6.58c1.377,0.376,1.086-2.642,1.969-5.898
										c0.884-3.262,2.609-5.533,1.232-5.907C304.523,153.707,302.692,156.044,301.807,159.303z"/>
									<g>
										<g>
											<path style="fill:#6C341E;" d="M247.203,184.244c-0.126,0.029-0.259,0.035-0.393,0.013
												c-3.488-0.585-10.062-3.576-9.973-10.706c0.024-1.925,0.711-3.535,2.041-4.786c2.499-2.349,6.619-2.741,8.519-2.79
												c-0.008-0.775-0.081-2.041-0.297-4.107c-0.057-0.549,0.356-1.043,0.891-1.098c0.549-0.057,1.041,0.342,1.099,0.891
												c0.287,2.75,0.372,4.53,0.258,5.441c-0.065,0.519-0.521,0.9-1.041,0.875c-0.054-0.002-5.428-0.228-8.062,2.248
												c-0.931,0.876-1.391,1.972-1.408,3.35c-0.089,7.189,7.963,8.651,8.306,8.71c0.544,0.093,0.91,0.609,0.818,1.153
												C247.891,183.846,247.583,184.155,247.203,184.244z"/>
											<path style="fill:#000516;" d="M215.039,145.128c0,0,9.184-7.043,21.796,9.706L215.039,145.128z"/>
										</g>
									</g>
								</g>
							</g>
							<path style="fill:#000516;" d="M307.275,115.722c2.6-12.996,1.496-41.664-8-42.667c-10.716-1.132-11.733,15.131-18.667,7.334
								c-4.225-4.753,4.373-21.208-10.666-22c-12.667-0.667-7.977,14.677-23.482,16.139c-11.714,1.673-21.753-39.369-28.115-0.266
								c-4.006,24.622-18.811-4.695-27.104,1.939c-12.56,10.047,2.602,73.511,2.602,73.511s5.189,17.626,8.099,13.344
								c1.61-2.371,0.997-22.959,2.041-29.672c0.809-5.195,2.233-17.535,15.229-12.335c0,0,33.367,19.699,50.064,0.007
								c10.334-7.666,17.773,0.931,19.249,11.256c1.204,8.433,2.124,33.165,4.75,35.411c3.09,2.644,7.838-18.01,7.838-18.01
								S302.548,139.364,307.275,115.722z"/>
							<path style="fill:#FFFFFF;" d="M404.36,166.555c-14.66,0.702-26.69,10.577-36.505,20.622
								c-11.846,12.123-21.714,25.994-33.024,38.593c-7.195,8.016-15.304,16.225-25.401,20.462
								c-9.892,4.151-20.037,2.179-28.817-3.609c-0.54-0.356-1.04,0.51-0.504,0.863c5.678,3.743,12.099,6.23,18.976,6.072
								c6.23-0.144,12.135-2.608,17.337-5.893c13.185-8.322,23.083-21.521,32.815-33.428c8.048-9.846,16.08-19.847,25.572-28.362
								c8.245-7.396,18.189-13.776,29.553-14.32C405.002,167.524,405.005,166.524,404.36,166.555z"/>
							<path style="fill:#FFFFFF;" d="M213.169,245.979c-10.154,1.405-21.096,1.22-29.868-4.728
								c-7.98-5.41-12.073-14.814-14.669-23.753c-2.874-9.901-5.493-19.892-8.566-29.735c-1.986-6.363-4.48-12.48-8.248-18.011
								c-6.591-9.674-15.684-17.69-24.162-25.645c-0.47-0.441-1.178,0.265-0.707,0.707c7.487,7.025,15.168,14.063,21.563,22.129
								c4.327,5.456,7.376,11.547,9.623,18.118c3.145,9.195,5.461,18.682,8.226,27.994c2.685,9.048,5.239,18.051,11.851,25.129
								c9.057,9.697,22.867,10.468,35.224,8.758C214.071,246.855,213.799,245.891,213.169,245.979z"/>
						</g>
					</g>
				</g>
			</g>
		</g>
		<g>
			<g>
				<rect x="142.927" y="430.77" style="fill:#222C2B;" width="322.482" height="11.999"/>
				<rect x="142.927" y="419.271" style="fill:#383D43;" width="322.482" height="13.498"/>
			</g>
			<g>
				<g>
					<g>
						<path style="fill:#494E52;" d="M253.378,428.19c0,7.732-6.268,14-14,14l0,0c-7.732,0-14-6.268-14-14v-77
							c0-7.733,6.268-14,14-14l0,0c7.732,0,14,6.267,14,14V428.19z"/>
						<g>
							<path style="fill:#494E52;" d="M206.744,452c-6.554,0-11.866-5.313-11.866-11.865l0,0c0-6.555,5.313-11.867,11.866-11.867
								h65.267c6.555,0,11.867,5.313,11.867,11.867l0,0c0,6.553-5.313,11.865-11.867,11.865H206.744z"/>
							<path style="fill:#383D43;" d="M272.011,440h-65.267c-4.362,0-8.163-2.359-10.226-5.865c-1.036,1.762-1.641,3.807-1.641,6
								c0,6.553,5.313,11.865,11.866,11.865h65.267c6.555,0,11.867-5.313,11.867-11.865c0-2.193-0.604-4.238-1.641-6
								C280.175,437.641,276.373,440,272.011,440z"/>
						</g>
					</g>
					<g>
						<g>
							<path style="fill:#494E52;" d="M346.91,388.717c0,8.791-7.126,15.918-15.919,15.918H147.765
								c-8.791,0-15.918-7.127-15.918-15.918V269.503c0-8.791,7.127-15.918,15.918-15.918h183.227
								c8.793,0,15.919,7.127,15.919,15.918V388.717z"/>
							<path style="fill:#656C70;" d="M330.991,253.585H147.765c-8.791,0-15.918,7.127-15.918,15.918v6.667
								c0-8.791,7.127-19.918,15.918-19.918h183.227c8.793,0,15.919,11.127,15.919,19.918v-6.667
								C346.91,260.711,339.784,253.585,330.991,253.585z"/>
							<path style="fill:#383D43;" d="M330.91,379.848c0,7.482-6.065,13.549-13.551,13.549H161.396
								c-7.483,0-13.55-6.066-13.55-13.549V278.372c0-7.482,6.066-13.549,13.55-13.549h155.963c7.485,0,13.551,6.066,13.551,13.549
								V379.848z"/>
							<path style="fill:#222C2B;" d="M317.359,386.397H161.396c-7.483,0-13.55-6.066-13.55-13.549v7
								c0,7.482,6.066,13.549,13.55,13.549h155.963c7.485,0,13.551-6.066,13.551-13.549v-7
								C330.91,380.331,324.845,386.397,317.359,386.397z"/>
							<path style="fill:#494E52;" d="M268.263,365.122c0,2.361-1.914,4.275-4.275,4.275H214.77c-2.361,0-4.275-1.914-4.275-4.275
								v-32.023c0-2.361,1.914-4.275,4.275-4.275h49.218c2.361,0,4.275,1.914,4.275,4.275V365.122z"/>
						</g>
						<g>
							<path style="fill:#494E52;" d="M176.796,304.059c-4.097,0-7.417-3.32-7.417-7.418l0,0c0-4.096,3.32-7.416,7.417-7.416
								h128.873c4.097,0,7.417,3.32,7.417,7.416l0,0c0,4.098-3.32,7.418-7.417,7.418H176.796z"/>
							<path style="fill:#222C2B;" d="M305.669,296.559H176.796c-2.726,0-5.102-1.477-6.392-3.668
								c-0.647,1.102-1.025,2.381-1.025,3.75c0,4.098,3.32,7.418,7.417,7.418h128.873c4.097,0,7.417-3.32,7.417-7.418
								c0-1.369-0.378-2.648-1.025-3.75C310.771,295.082,308.396,296.559,305.669,296.559z"/>
						</g>
					</g>
				</g>
			</g>
		</g>
	</g>
	
		<linearGradient id="SVGID_1_" gradientUnits="userSpaceOnUse" x1="-44.8948" y1="13.9462" x2="-22.5649" y2="432.6157" gradientTransform="matrix(-1 0 0 1 204.3614 0)">
		<stop  offset="0" style="stop-color:#FFFFFF;stop-opacity:0"/>
		<stop  offset="0.8871" style="stop-color:#5BCAF5"/>
	</linearGradient>
	<polygon style="opacity:0.5;fill:url(#SVGID_1_);" points="148.857,254.063 328.917,256.145 500,0.001 0,0 	"/>
	<g>
		<g>
			<g>
				
					<text transform="matrix(1 0 0 1 42.2454 324.3739)" style="fill:#DD901F; font-family:'Montserrat-Black'; font-size:12.7875px;">+100 COINS</text>
			</g>
			<polygon style="fill:#FFFFFF;" points="121.773,291.172 114.25,291.172 114.25,283.648 110.811,283.648 110.811,291.172 
				103.288,291.172 103.288,294.611 110.811,294.611 110.811,302.134 114.25,302.134 114.25,294.611 121.773,294.611 			"/>
			<g>
				<g>
					<path style="fill:#FFFFFF;" d="M46.124,259.362c1.283,4.185-1.031,7.568-6.559,9.969c-3.785,1.641-7.502,3.478-11.136,5.509
						c-4.032-8.23-8.063-16.459-12.095-24.689c4.301-1.863,8.662-3.511,13.069-4.946c6.873-2.18,10.967-0.214,12.1,3.38
						c0.717,2.229,0.201,4.38-1.498,6.154C43.047,254.919,45.238,256.53,46.124,259.362z M26.886,252.713
						c0.521,1.214,1.042,2.429,1.564,3.643c1.191-0.483,2.387-0.948,3.588-1.396c1.734-0.646,2.287-1.54,1.837-2.723
						c-0.448-1.178-1.501-1.54-3.293-0.904C29.346,251.775,28.113,252.235,26.886,252.713z M38.388,260.987
						c-0.463-1.247-1.532-1.614-3.166-0.982c-1.484,0.578-2.96,1.183-4.427,1.815c0.552,1.285,1.103,2.57,1.655,3.855
						c1.417-0.639,2.844-1.252,4.279-1.838C38.304,263.195,38.853,262.238,38.388,260.987z"/>
					<path style="fill:#FFFFFF;" d="M46.754,256.15c-1.795-5.665,1.592-10.876,8.15-11.921c6.588-1.037,11.823,2.418,12.565,7.7
						c0.748,5.311-2.735,9.702-8.275,11.128C53.689,264.474,48.554,261.842,46.754,256.15z M59.951,253.067
						c-0.476-2.333-2.033-3.308-3.715-2.994c-1.683,0.313-2.686,1.798-2.087,4.176c0.6,2.38,2.137,3.315,3.714,2.964
						C59.44,256.861,60.427,255.402,59.951,253.067z"/>
					<path style="fill:#FFFFFF;" d="M89.816,249.964c-0.027,3.03-0.054,6.06-0.081,9.09c-2.349-0.009-4.697,0.048-7.039,0.17
						c-0.127-2.751-0.253-5.502-0.38-8.252c-0.09-2.051-1.007-2.845-2.398-2.827c-1.561,0.019-2.809,0.964-2.595,3.472
						c0.218,2.648,0.436,5.296,0.654,7.944c-2.335,0.21-4.664,0.486-6.983,0.827c-0.789-5.806-1.578-11.611-2.368-17.417
						c2.522-0.171,5.046-0.275,7.57-0.312c0.047,0.557,0.095,1.115,0.142,1.672c1.382-1.365,3.396-2.004,5.654-1.94
						C86.463,242.529,89.897,244.983,89.816,249.964z"/>
					<path style="fill:#FFFFFF;" d="M114.028,247.215c-0.874,4.599-1.748,9.197-2.622,13.796c-2.22-0.395-4.447-0.73-6.677-1.005
						c0.06-0.46,0.121-0.919,0.181-1.379c-1.436,0.943-3.2,1.302-5.034,1.152c-4.048-0.317-7.049-2.562-6.921-7.694
						c0.094-2.884,0.188-5.768,0.282-8.652c2.637,0.279,5.267,0.632,7.886,1.059c-0.216,2.405-0.432,4.809-0.648,7.214
						c-0.188,2.144,0.62,2.948,2.039,3.129c1.257,0.159,2.581-0.43,2.863-2.578c0.293-2.277,0.585-4.554,0.878-6.831
						C108.86,245.947,111.452,246.544,114.028,247.215z"/>
					<path style="fill:#FFFFFF;" d="M113.673,260.3c0.901-1.102,1.82-2.18,2.755-3.232c1.493,1.158,3.715,2.177,5.754,2.762
						c1.726,0.496,2.263,0.423,2.375,0.057c0.385-1.421-10.028-2.276-8.932-7.608c0.507-2.552,4.245-3.825,10.444-1.601
						c2.682,0.959,5.394,2.424,7.052,3.859c-1.066,0.781-2.119,1.589-3.159,2.424c-1.566-1.355-3.331-2.215-4.834-2.719
						c-1.899-0.636-2.51-0.485-2.591-0.183c-0.356,1.18,10.353,3.172,8.558,7.915c-0.81,2.1-4.292,2.873-10.078,1.385
						C118.144,262.613,115.256,261.445,113.673,260.3z"/>
					<path style="fill:#FFFFFF;" d="M136.606,251.427c3.005,1.394,5.972,2.895,8.893,4.503c-1.827,2.467-3.629,4.985-5.405,7.555
						c-1.851-0.855-3.716-1.666-5.594-2.433C135.233,257.887,135.935,254.679,136.606,251.427z M131.895,263.832
						c0.539-1.411,2.645-1.839,5.063-0.798c2.417,1.044,3.59,2.8,2.962,4.061c-0.62,1.246-2.719,1.582-5.043,0.698
						C132.553,266.91,131.363,265.228,131.895,263.832z"/>
				</g>
			</g>
			<polygon style="fill:#DD901F;" points="55.817,174.061 59.515,185.442 71.481,185.442 61.8,192.475 65.498,203.856 
				55.817,196.822 46.136,203.856 49.834,192.475 40.153,185.442 52.119,185.442 			"/>
			<polygon style="fill:#DD901F;" points="115.227,136.575 86.591,141.035 95.637,170.495 108.486,168.885 103.169,193.452 
				125.885,154.09 109.913,157.766 			"/>
			<polygon style="fill:#DD901F;" points="106.238,206.199 108.664,213.664 116.514,213.664 110.163,218.279 112.589,225.744 
				106.238,221.13 99.887,225.744 102.313,218.279 95.962,213.664 103.812,213.664 			"/>
			<polygon style="fill:#DD901F;" points="66.093,280.308 68.519,287.773 76.369,287.773 70.018,292.388 72.444,299.853 
				66.093,295.239 59.742,299.853 62.168,292.388 55.817,287.773 63.667,287.773 			"/>
		</g>
		<g>
			<g>
				
					<text transform="matrix(1 0 0 1 358.5543 275.0647)" style="fill:#DD901F; font-family:'Montserrat-Black'; font-size:17.6953px;">+100 COINS</text>
			</g>
			<polygon style="fill:#FFFFFF;" points="365.017,299.119 356.606,299.119 356.606,290.708 352.761,290.708 352.761,299.119 
				344.349,299.119 344.349,302.964 352.761,302.964 352.761,311.375 356.606,311.375 356.606,302.964 365.017,302.964 			"/>
			<polygon style="fill:#FFFFFF;" points="378.509,230.406 367.894,230.406 367.894,219.792 363.042,219.792 363.042,230.406 
				352.427,230.406 352.427,235.259 363.042,235.259 363.042,245.874 367.894,245.874 367.894,235.259 378.509,235.259 			"/>
			<g>
				<g>
					<path style="fill:#FFFFFF;" d="M352.471,157.806c1.015,3.312-0.816,5.99-5.191,7.891c-2.995,1.299-5.937,2.752-8.812,4.359
						c-3.191-6.513-6.382-13.026-9.572-19.54c3.404-1.474,6.855-2.778,10.341-3.914c5.438-1.725,8.679-0.17,9.576,2.675
						c0.568,1.765,0.16,3.467-1.185,4.871C350.035,154.289,351.771,155.565,352.471,157.806z M337.245,152.544
						c0.413,0.961,0.825,1.922,1.238,2.883c0.943-0.382,1.889-0.75,2.839-1.105c1.371-0.512,1.811-1.219,1.455-2.155
						c-0.354-0.933-1.189-1.219-2.607-0.715C339.192,151.802,338.217,152.166,337.245,152.544z M346.349,159.092
						c-0.366-0.986-1.213-1.276-2.505-0.776c-1.174,0.457-2.342,0.936-3.504,1.437c0.436,1.017,0.873,2.033,1.309,3.05
						c1.122-0.506,2.251-0.991,3.387-1.455C346.282,160.839,346.717,160.082,346.349,159.092z"/>
					<path style="fill:#FFFFFF;" d="M352.978,155.262c-1.422-4.483,1.261-8.609,6.45-9.436c5.213-0.821,9.357,1.913,9.945,6.094
						c0.592,4.203-2.164,7.678-6.549,8.807C358.468,161.848,354.402,159.766,352.978,155.262z M363.422,152.822
						c-0.377-1.847-1.609-2.618-2.941-2.37c-1.331,0.247-2.125,1.423-1.651,3.305c0.474,1.883,1.69,2.622,2.938,2.345
						C363.016,155.823,363.798,154.669,363.422,152.822z"/>
					<path style="fill:#FFFFFF;" d="M387.065,150.364c-0.021,2.398-0.042,4.796-0.064,7.195c-1.859-0.007-3.717,0.038-5.571,0.135
						c-0.1-2.177-0.2-4.354-0.301-6.531c-0.071-1.624-0.797-2.252-1.897-2.238c-1.236,0.015-2.222,0.764-2.054,2.748
						c0.173,2.096,0.345,4.191,0.518,6.287c-1.848,0.166-3.691,0.384-5.527,0.654c-0.625-4.595-1.249-9.189-1.874-13.784
						c1.996-0.136,3.993-0.218,5.991-0.247c0.037,0.441,0.075,0.882,0.112,1.323c1.094-1.08,2.687-1.586,4.474-1.536
						C384.412,144.479,387.13,146.422,387.065,150.364z"/>
					<path style="fill:#FFFFFF;" d="M406.234,148.188c-0.692,3.64-1.383,7.279-2.075,10.919c-1.757-0.313-3.519-0.578-5.284-0.795
						c0.048-0.364,0.096-0.727,0.143-1.091c-1.137,0.745-2.532,1.03-3.984,0.911c-3.204-0.251-5.58-2.028-5.478-6.089
						c0.074-2.282,0.149-4.565,0.224-6.847c2.087,0.221,4.168,0.5,6.241,0.838c-0.171,1.903-0.342,3.806-0.513,5.709
						c-0.148,1.697,0.491,2.333,1.614,2.477c0.995,0.126,2.041-0.34,2.265-2.04c0.232-1.802,0.463-3.604,0.695-5.407
						C402.143,147.185,404.195,147.658,406.234,148.188z"/>
					<path style="fill:#FFFFFF;" d="M405.961,158.545c0.713-0.872,1.44-1.725,2.18-2.558c1.18,0.917,2.94,1.723,4.553,2.186
						c1.365,0.392,1.791,0.334,1.88,0.045c0.304-1.124-7.936-1.801-7.068-6.02c0.401-2.02,3.36-3.028,8.266-1.268
						c2.123,0.758,4.269,1.919,5.58,3.054c-0.844,0.618-1.677,1.257-2.5,1.918c-1.238-1.072-2.637-1.752-3.826-2.151
						c-1.502-0.503-1.985-0.384-2.05-0.145c-0.282,0.934,8.194,2.51,6.772,6.263c-0.641,1.662-3.396,2.273-7.975,1.096
						C409.499,160.376,407.216,159.452,405.961,158.545z"/>
					<path style="fill:#FFFFFF;" d="M424.117,151.527c2.378,1.103,4.725,2.291,7.037,3.563c-1.445,1.952-2.871,3.946-4.276,5.979
						c-1.465-0.677-2.941-1.319-4.428-1.926C423.03,156.639,423.585,154.1,424.117,151.527z M420.388,161.343
						c0.426-1.117,2.092-1.455,4.007-0.631c1.913,0.826,2.84,2.216,2.344,3.213c-0.49,0.986-2.151,1.253-3.99,0.552
						C420.909,163.78,419.967,162.448,420.388,161.343z"/>
				</g>
			</g>
			<polygon style="fill:#DD901F;" points="403.008,294.719 405.194,301.448 412.268,301.448 406.545,305.606 408.731,312.334 
				403.008,308.176 397.284,312.334 399.47,305.606 393.747,301.448 400.822,301.448 			"/>
			<polygon style="fill:#DD901F;" points="450.686,221.906 453.399,230.253 462.175,230.253 455.075,235.412 457.787,243.759 
				450.686,238.6 443.586,243.759 446.298,235.412 439.197,230.253 447.974,230.253 			"/>
			<polygon style="fill:#DD901F;" points="395.697,174.43 400.635,189.626 416.614,189.626 403.686,199.019 408.624,214.215 
				395.697,204.823 382.77,214.215 387.707,199.019 374.78,189.626 390.759,189.626 			"/>
			<polygon style="fill:#DD901F;" points="474.535,163.326 445.312,149.329 435.022,182.212 447.887,188.854 427.448,208.141 
				473.285,186.215 456.234,179.505 			"/>
			<g>
				
					<text transform="matrix(1 0 0 1 42.2454 324.3739)" style="fill:#DD901F; font-family:'Montserrat-Black'; font-size:12.7875px;">+100 COINS</text>
			</g>
			<polygon style="fill:#DD901F;" points="55.817,174.061 59.515,185.442 71.481,185.442 61.8,192.475 65.498,203.856 
				55.817,196.822 46.136,203.856 49.834,192.475 40.153,185.442 52.119,185.442 			"/>
			<polygon style="fill:#DD901F;" points="115.227,136.575 86.591,141.035 95.637,170.495 108.486,168.885 103.169,193.452 
				125.885,154.09 109.913,157.766 			"/>
			<polygon style="fill:#DD901F;" points="106.238,206.199 108.664,213.664 116.514,213.664 110.163,218.279 112.589,225.744 
				106.238,221.13 99.887,225.744 102.313,218.279 95.962,213.664 103.812,213.664 			"/>
			<polygon style="fill:#DD901F;" points="66.093,280.308 68.519,287.773 76.369,287.773 70.018,292.388 72.444,299.853 
				66.093,295.239 59.742,299.853 62.168,292.388 55.817,287.773 63.667,287.773 			"/>
			<g>
				
					<text transform="matrix(1 0 0 1 358.5543 275.0647)" style="fill:#DD901F; font-family:'Montserrat-Black'; font-size:17.6953px;">+100 COINS</text>
			</g>
			<polygon style="fill:#DD901F;" points="403.008,294.719 405.194,301.448 412.268,301.448 406.545,305.606 408.731,312.334 
				403.008,308.176 397.284,312.334 399.47,305.606 393.747,301.448 400.822,301.448 			"/>
			<polygon style="fill:#DD901F;" points="450.686,221.906 453.399,230.253 462.175,230.253 455.075,235.412 457.787,243.759 
				450.686,238.6 443.586,243.759 446.298,235.412 439.197,230.253 447.974,230.253 			"/>
			<polygon style="fill:#DD901F;" points="395.697,174.43 400.635,189.626 416.614,189.626 403.686,199.019 408.624,214.215 
				395.697,204.823 382.77,214.215 387.707,199.019 374.78,189.626 390.759,189.626 			"/>
			<polygon style="fill:#DD901F;" points="474.535,163.326 445.312,149.329 435.022,182.212 447.887,188.854 427.448,208.141 
				473.285,186.215 456.234,179.505 			"/>
			<g>
				
					<text transform="matrix(1 0 0 1 42.2454 324.3739)" style="fill:#DD901F; font-family:'Montserrat-Black'; font-size:12.7875px;">+100 COINS</text>
			</g>
			<polygon style="fill:#DD901F;" points="55.817,174.061 59.515,185.442 71.481,185.442 61.8,192.475 65.498,203.856 
				55.817,196.822 46.136,203.856 49.834,192.475 40.153,185.442 52.119,185.442 			"/>
			<polygon style="fill:#DD901F;" points="115.227,136.575 86.591,141.035 95.637,170.495 108.486,168.885 103.169,193.452 
				125.885,154.09 109.913,157.766 			"/>
			<polygon style="fill:#DD901F;" points="106.238,206.199 108.664,213.664 116.514,213.664 110.163,218.279 112.589,225.744 
				106.238,221.13 99.887,225.744 102.313,218.279 95.962,213.664 103.812,213.664 			"/>
			<polygon style="fill:#DD901F;" points="66.093,280.308 68.519,287.773 76.369,287.773 70.018,292.388 72.444,299.853 
				66.093,295.239 59.742,299.853 62.168,292.388 55.817,287.773 63.667,287.773 			"/>
			<g>
				
					<text transform="matrix(1 0 0 1 42.2454 324.3739)" style="fill:#DD901F; font-family:'Montserrat-Black'; font-size:12.7875px;">+100 COINS</text>
			</g>
			<polygon style="fill:#DD901F;" points="55.817,174.061 59.515,185.442 71.481,185.442 61.8,192.475 65.498,203.856 
				55.817,196.822 46.136,203.856 49.834,192.475 40.153,185.442 52.119,185.442 			"/>
			<polygon style="fill:#DD901F;" points="115.227,136.575 86.591,141.035 95.637,170.495 108.486,168.885 103.169,193.452 
				125.885,154.09 109.913,157.766 			"/>
			<polygon style="fill:#DD901F;" points="106.238,206.199 108.664,213.664 116.514,213.664 110.163,218.279 112.589,225.744 
				106.238,221.13 99.887,225.744 102.313,218.279 95.962,213.664 103.812,213.664 			"/>
			<polygon style="fill:#DD901F;" points="66.093,280.308 68.519,287.773 76.369,287.773 70.018,292.388 72.444,299.853 
				66.093,295.239 59.742,299.853 62.168,292.388 55.817,287.773 63.667,287.773 			"/>
			<g>
				
					<text transform="matrix(1 0 0 1 358.5543 275.0647)" style="fill:#DD901F; font-family:'Montserrat-Black'; font-size:17.6953px;">+100 COINS</text>
			</g>
			<polygon style="fill:#DD901F;" points="403.008,294.719 405.194,301.448 412.268,301.448 406.545,305.606 408.731,312.334 
				403.008,308.176 397.284,312.334 399.47,305.606 393.747,301.448 400.822,301.448 			"/>
			<polygon style="fill:#DD901F;" points="450.686,221.906 453.399,230.253 462.175,230.253 455.075,235.412 457.787,243.759 
				450.686,238.6 443.586,243.759 446.298,235.412 439.197,230.253 447.974,230.253 			"/>
			<polygon style="fill:#DD901F;" points="395.697,174.43 400.635,189.626 416.614,189.626 403.686,199.019 408.624,214.215 
				395.697,204.823 382.77,214.215 387.707,199.019 374.78,189.626 390.759,189.626 			"/>
			<polygon style="fill:#DD901F;" points="474.535,163.326 445.312,149.329 435.022,182.212 447.887,188.854 427.448,208.141 
				473.285,186.215 456.234,179.505 			"/>
		</g>
	</g>
</g>
</svg>
